<?xml version="1.0" encoding="UTF-8"?>
<svg width="14px" height="17px" viewBox="0 0 14 17" version="1.1" xmlns="http://www.w3.org/2000/svg" xmlns:xlink="http://www.w3.org/1999/xlink">
    <title>copy</title>
    <g id="Web" stroke="none" stroke-width="1" fill="none" fill-rule="evenodd">
        <g id="01_Homepage_Mail_Hover" transform="translate(-1041.000000, -152.000000)" fill="#005DFF" fill-rule="nonzero">
            <g id="copy" transform="translate(1041.000000, 152.000000)">
                <path d="M9.16765286,3.5 L1.33234714,3.5 C0.597140039,3.5 0,4.06357036 0,4.75744602 L0,15.367554 C0,16.0614296 0.597140039,16.625 1.33234714,16.625 L9.16765286,16.625 C9.90285996,16.625 10.5,16.0614296 10.5,15.367554 L10.5,4.75744602 C10.4965483,4.06357036 9.89940828,3.5 9.16765286,3.5 Z M9.56459566,15.3642964 C9.56459566,15.5727848 9.38510848,15.7421817 9.16420118,15.7421817 L1.32889546,15.7421817 C1.10798817,15.7421817 0.928500986,15.5727848 0.928500986,15.3642964 L0.928500986,4.75744602 C0.928500986,4.54895756 1.10798817,4.37956069 1.32889546,4.37956069 L9.16420118,4.37956069 C9.38510848,4.37956069 9.56459566,4.54895756 9.56459566,4.75744602 L9.56459566,15.3642964 Z" id="Shape"></path>
                <path d="M12.6676529,0 L4.83234714,0 C4.09714004,0 3.5,0.563570365 3.5,1.25744602 C3.5,1.50176843 3.70710059,1.69722636 3.96597633,1.69722636 C4.22485207,1.69722636 4.43195266,1.50176843 4.43195266,1.25744602 C4.43195266,1.04895756 4.61143984,0.879560685 4.83234714,0.879560685 L12.6676529,0.879560685 C12.8885602,0.879560685 13.0680473,1.04895756 13.0680473,1.25744602 L13.0680473,11.867554 C13.0680473,12.0760424 12.8885602,12.2454393 12.6676529,12.2454393 C12.4087771,12.2454393 12.2016765,12.4408972 12.2016765,12.6852197 C12.2016765,12.9295421 12.4087771,13.125 12.6676529,13.125 C13.40286,13.125 14,12.5614296 14,11.867554 L14,1.25744602 C14,0.563570365 13.40286,0 12.6676529,0 Z" id="Path"></path>
            </g>
        </g>
    </g>
</svg>