<?xml version="1.0" encoding="UTF-8"?>
<svg width="14px" height="11px" viewBox="0 0 14 11" version="1.1" xmlns="http://www.w3.org/2000/svg" xmlns:xlink="http://www.w3.org/1999/xlink">
    <title>envelope</title>
    <g id="Web" stroke="none" stroke-width="1" fill="none" fill-rule="evenodd">
        <g id="01_Homepage_Mail_Hover" transform="translate(-1041.000000, -200.000000)" fill="#005DFF" fill-rule="nonzero">
            <g id="envelope" transform="translate(1041.000000, 200.000000)">
                <path d="M12.6874909,0 L1.31250913,0 C0.588747083,0 0,0.600290308 0,1.33824274 L0,9.36763961 C0,10.105592 0.588747083,10.7058824 1.31250913,10.7058824 L12.6874909,10.7058824 C13.4112529,10.7058824 14,10.105592 14,9.36763961 L14,1.33824274 C14,0.600290308 13.4112529,0 12.6874909,0 Z M12.6874909,0.892151897 C12.7469325,0.892151897 12.803481,0.904726229 12.8551783,0.926686616 L7,6.1009054 L1.14479249,0.926686616 C1.19648978,0.904756026 1.25303825,0.892151897 1.31247991,0.892151897 L12.6874909,0.892151897 Z M1.31250913,9.81370066 C1.07111874,9.81370066 0.874996347,9.61376281 0.874996347,9.36760981 L0.874996347,1.86925503 L6.71331238,7.02833694 C6.79578256,7.10107141 6.89789128,7.13724497 7,7.13724497 C7.10210872,7.13724497 7.20421744,7.10110121 7.28668762,7.02833694 L13.1250037,1.86925503 L13.1250037,9.36763961 C13.1250037,9.61376281 12.9288813,9.81370066 12.6874909,9.81370066 L1.31250913,9.81370066 Z" id="Shape"></path>
            </g>
        </g>
    </g>
</svg>