<?xml version="1.0" encoding="UTF-8"?>
<svg width="45px" height="45px" viewBox="0 0 45 45" version="1.1" xmlns="http://www.w3.org/2000/svg" xmlns:xlink="http://www.w3.org/1999/xlink">
    <title>javascript-logo-svgrepo-com</title>
    <g id="Symbols" stroke="none" stroke-width="1" fill="none" fill-rule="evenodd">
        <g id="Tech/Js" fill-rule="nonzero">
            <g id="javascript-logo-svgrepo-com">
                <polygon id="Path" fill="#F7DF1E" points="0 0 45 0 45 45 0 45"></polygon>
                <path d="M12.0001778,37.1433259 L15.4827413,35.0646457 C16.1547213,36.2395138 16.7659032,37.2336194 18.2319931,37.2336194 C19.6372848,37.2336194 20.5234808,36.6915075 20.5234808,34.582671 L20.5234808,20.2412503 L24.8001541,20.2412503 L24.8001541,34.6422823 C24.8001541,39.010912 22.2036088,40.999474 18.4152766,40.999474 C14.9940446,40.999474 13.0081479,39.251987 12,37.1429752 M27.1231075,36.6913322 L30.6053154,34.7029455 C31.5220882,36.1793765 32.7135196,37.263951 34.8211905,37.263951 C36.5934046,37.263951 37.7233267,36.3901199 37.7233267,35.1849202 C37.7233267,33.7388208 36.5624722,33.2265145 34.6073302,32.3831903 L33.538384,31.9308459 C30.4527866,30.6357033 28.4060917,29.0086662 28.4060917,25.5740048 C28.4060917,22.4103994 30.8499304,20 34.6686617,20 C37.3875144,20 39.3426565,20.9341437 40.7477704,23.3745241 L37.4177358,25.4837113 C36.6844242,24.188218 35.8904921,23.676087 34.6684839,23.676087 C33.4158988,23.676087 32.6216112,24.4594493 32.6216112,25.4837113 C32.6216112,26.7490482 33.4158988,27.2615299 35.2487334,28.0448921 L36.3178572,28.4967105 C39.9533051,30.0334541 42,31.6000033 42,35.1247829 C42,38.9213198 38.9757341,41 34.9127433,41 C30.9414832,41 28.375337,39.1320632 27.1229297,36.6915075" id="Shape" fill="#000000"></path>
            </g>
        </g>
    </g>
</svg>