<?xml version="1.0" encoding="UTF-8"?>
<svg width="28px" height="28px" viewBox="0 0 28 28" version="1.1" xmlns="http://www.w3.org/2000/svg" xmlns:xlink="http://www.w3.org/1999/xlink">
    <title>paper-plane</title>
    <g id="Web" stroke="none" stroke-width="1" fill="none" fill-rule="evenodd">
        <g id="01_Homepage" transform="translate(-310.000000, -4959.000000)" fill="#FFFFFF" fill-rule="nonzero">
            <g id="Group-5" transform="translate(285.000000, 4930.000000)">
                <g id="paper-plane" transform="translate(25.000000, 29.000000)">
                    <path d="M9.33333333,21.2121212 L9.33333333,26.3247621 C9.33333333,26.6819194 9.59369947,26.9982903 9.97924164,27.1107287 C10.0756272,27.1382871 10.1745162,27.1515152 10.2721535,27.1515152 C10.5650655,27.1515152 10.8479633,27.030258 11.0282168,26.8141999 L14.4242424,22.7443702 L9.33333333,21.2121212 Z" id="Path"></path>
                    <path d="M27.6324627,0.165219678 C27.3641303,-0.0284037065 27.0117981,-0.054536924 26.7201323,0.101074508 L0.47021704,14.0585884 C0.159884708,14.2237028 -0.0232813673,14.5610589 0.00238521651,14.9162331 C0.0292184633,15.2725952 0.261384381,15.5766908 0.591549982,15.6919145 L7.88902643,18.2315881 L23.4301429,4.70170867 L11.4041818,19.45391 L23.634309,23.7100608 C23.7253087,23.7409455 23.820975,23.7575758 23.9166414,23.7575758 C24.0753075,23.7575758 24.232807,23.7136244 24.3716399,23.6280975 C24.5933059,23.4903042 24.7438054,23.2586689 24.7823053,22.9985246 L27.9906282,1.02286436 C28.0384614,0.690259776 27.9007952,0.360030936 27.6324627,0.165219678 Z" id="Path"></path>
                </g>
            </g>
        </g>
    </g>
</svg>