<?xml version="1.0" encoding="UTF-8"?>
<svg width="44px" height="39px" viewBox="0 0 44 39" version="1.1" xmlns="http://www.w3.org/2000/svg" xmlns:xlink="http://www.w3.org/1999/xlink">
    <title>1174949_js_react js_logo_react_react native_icon</title>
    <g id="Symbols" stroke="none" stroke-width="1" fill="none" fill-rule="evenodd">
        <g id="Tech/React" transform="translate(0.000000, -3.000000)" fill="#00D8FF" fill-rule="nonzero">
            <g id="1174949_js_react-js_logo_react_react-native_icon" transform="translate(0.000000, 3.000000)">
                <circle id="Oval" cx="22" cy="20" r="4"></circle>
                <path d="M22.007832,29 C16.4862941,29 11.6618014,28.3475983 8.05126379,27.1056769 C5.70950516,26.3039301 3.72018512,25.2349345 2.30259879,24.0165939 C0.798860805,22.7275109 0,21.320524 0,19.9606987 C0,17.3510917 2.8508366,14.7965066 7.63616946,13.130131 C11.5521538,11.7624454 16.6585974,11 22,11 C27.247419,11 32.2833749,11.7388646 36.1758633,13.0908297 C38.4549662,13.8768559 40.3737985,14.89869 41.7365611,16.0305677 C43.2168031,17.2724891 44,18.6323144 44,19.9606987 C44,22.6724891 40.8123888,25.4157205 35.6746173,27.1213974 C32.0405838,28.3318777 27.1847633,29 22.007832,29 Z M22.007832,12.8864629 C16.9405482,12.8864629 11.9280883,13.6253275 8.26272695,14.9065502 C3.86116056,16.4471616 1.88750445,18.5537118 1.88750445,19.9606987 C1.88750445,21.4227074 4.00996796,23.7257642 8.66215735,25.3213974 C12.0768957,26.4925764 16.6977572,27.1135371 22.007832,27.1135371 C26.988964,27.1135371 31.6333215,26.4847162 35.0872197,25.3292576 C39.9195443,23.7179039 42.1281595,21.4148472 42.1281595,19.9606987 C42.1281595,19.2139738 41.5642577,18.3336245 40.5382698,17.4768559 C39.3556426,16.4864629 37.6326095,15.5825328 35.5728017,14.8672489 C31.8682805,13.5938865 27.0516198,12.8864629 22.007832,12.8864629 Z" id="Shape"></path>
                <path d="M13.5830131,39 C12.7831131,39 12.0773189,38.8282583 11.481315,38.484775 C9.23061588,37.188906 8.44640017,33.457428 9.39530118,28.5003389 C10.1716747,24.433184 12.0694768,19.6556431 14.7436524,15.0420373 C17.370775,10.5143025 20.5233222,6.53301834 23.6366586,3.83979673 C25.456039,2.26289597 27.298946,1.10754293 28.9614833,0.49864065 C30.7730216,-0.164906703 32.341453,-0.164906703 33.486408,0.490834211 C35.8312129,1.8335418 36.6075865,5.95534182 35.5096845,11.2324949 C34.7333109,14.9795858 32.8825618,19.4995143 30.29465,23.9726041 C27.5342107,28.7345321 24.554191,32.5753003 21.6761193,35.0811674 C19.8096859,36.7049068 17.8883574,37.8914856 16.1317142,38.5081943 C15.2141818,38.8360648 14.3515445,39 13.5830131,39 Z M15.5513945,15.5104237 L16.3669789,15.9788101 C13.8339621,20.3504162 11.9596866,25.0420863 11.2382081,28.8516287 C10.3677287,33.4183958 11.2068395,36.1662625 12.4145317,36.8610356 C12.7125337,37.0327773 13.1046415,37.1264545 13.5830131,37.1264545 C15.1436024,37.1264545 17.5981976,36.1428432 20.4370585,33.6760083 C23.158287,31.3106571 26.00499,27.6260177 28.6634813,23.0436378 C31.1572873,18.7422896 32.9296148,14.4175222 33.6667776,10.8655922 C34.6941002,5.89289031 33.8079364,2.84837892 32.5453491,2.12238006 C31.9022922,1.7554774 30.8592853,1.80231604 29.6045402,2.26289597 C28.1537411,2.79373385 26.5147302,3.83199029 24.8678772,5.26056871 C21.911384,7.82108085 18.8921535,11.6306233 16.3669789,15.9866165 L15.5513945,15.5104237 Z" id="Shape"></path>
                <path d="M31.3887017,39 C29.2602903,39 26.5606509,37.7192732 23.7436359,35.2983871 C20.5979692,32.5963658 17.3975271,28.5745711 14.7213629,23.9592689 L14.7213629,23.9592689 C12.0921489,19.4298691 10.2141389,14.7208552 9.42380966,10.6834419 C8.9621322,8.32503027 8.87605674,6.1618514 9.17340832,4.42037526 C9.50206007,2.52271293 10.2767392,1.1717023 11.4270203,0.507910946 C13.7588828,-0.843099686 17.7261789,0.546957496 21.7639004,4.13143079 C24.6278657,6.66945655 27.6326817,10.5272557 30.2227705,14.994181 C32.9850102,19.7578601 34.839545,24.2482134 35.575099,27.9810636 C36.0524265,30.4019497 36.1306769,32.651031 35.7942001,34.4784095 C35.4342482,36.4229277 34.6204439,37.8051756 33.4466876,38.4845855 C32.8598095,38.8281952 32.1633808,39 31.3887017,39 Z M16.3489715,23.0221517 C18.8842851,27.3953653 22.0299518,31.3546855 24.9721675,33.8770926 C28.5012613,36.9071049 31.3026262,37.563087 32.5155077,36.8602491 C33.7753394,36.1339832 34.6986943,33.1586361 33.7440392,28.3481011 C33.0397855,24.818293 31.263501,20.5231725 28.6029868,15.9391075 C26.1067985,11.6361777 23.2350082,7.94237408 20.5197188,5.53710659 C16.7167485,2.16348467 13.6336821,1.4059816 12.3738504,2.13224743 C11.732197,2.499285 11.2548694,3.42859289 11.0279432,4.74055697 C10.7697168,6.25556312 10.8479672,8.192272 11.2705195,10.3242136 C12.0217235,14.1585848 13.8214831,18.6645567 16.3489715,23.0221517 L16.3489715,23.0221517 Z" id="Shape"></path>
            </g>
        </g>
    </g>
</svg>