<svg xmlns="http://www.w3.org/2000/svg"><symbol id="bootstrap" viewBox="0 0 40 40"><path fill="#7952B3" fill-rule="evenodd" d="M8.308 4C6.026 4 4.337 5.998 4.413 8.164c.072 2.081-.022 4.777-.7 6.975C3.03 17.344 1.88 18.741 0 18.92v2.024c1.88.18 3.031 1.576 3.712 3.781.679 2.198.773 4.894.7 6.975-.075 2.166 1.614 4.164 3.896 4.164h23.387c2.282 0 3.97-1.997 3.895-4.164-.072-2.081.022-4.777.7-6.975.681-2.205 1.83-3.601 3.71-3.78V18.92c-1.88-.18-3.028-1.576-3.71-3.78-.678-2.199-.772-4.895-.7-6.976C35.666 5.998 33.977 4 31.695 4H8.308zm18.81 19.615c0 2.983-2.224 4.792-5.917 4.792h-6.286a.678.678 0 0 1-.678-.678V12.136c0-.375.304-.678.678-.678h6.25c3.08 0 5.1 1.667 5.1 4.228 0 1.797-1.36 3.406-3.091 3.688v.094c2.357.259 3.945 1.891 3.945 4.147zm-6.602-10.008h-3.584v5.062h3.018c2.334 0 3.62-.94 3.62-2.619 0-1.574-1.106-2.443-3.054-2.443zm-3.584 7.071v5.579h3.716c2.43 0 3.716-.975 3.716-2.807 0-1.832-1.323-2.772-3.873-2.772h-3.56z"/></symbol><symbol id="git" viewBox="0 0 40 40"><path fill="#F05133" d="M39.246 18.216L21.78.754a2.576 2.576 0 0 0-3.643 0L14.51 4.381l4.6 4.6a3.057 3.057 0 0 1 3.874 3.9l4.434 4.433a3.061 3.061 0 0 1 3.167 5.059 3.065 3.065 0 0 1-5.003-3.333l-4.134-4.135v10.883a3.065 3.065 0 1 1-2.52-.088V14.717a3.06 3.06 0 0 1-1.663-4.017l-4.538-4.538L.754 18.138a2.576 2.576 0 0 0 0 3.643L18.22 39.246a2.576 2.576 0 0 0 3.643 0l17.384-17.38a2.584 2.584 0 0 0 0-3.65z"/></symbol><symbol id="graphql" viewBox="0 0 40 40"><path fill="#E535AB" fill-rule="evenodd" d="M23.217 4.584l8.225 4.749a3.59 3.59 0 0 1 .81-.64A3.573 3.573 0 0 1 37.123 10a3.573 3.573 0 0 1-2.258 5.25v9.502c.33.08.646.206.94.376A3.555 3.555 0 0 1 37.113 30a3.57 3.57 0 0 1-5.754.592l-8.174 4.72A3.57 3.57 0 0 1 19.8 40a3.562 3.562 0 0 1-3.42-4.574L8.156 30.68A3.568 3.568 0 0 1 2.487 30a3.573 3.573 0 0 1 2.246-5.248V15.25A3.57 3.57 0 0 1 2.476 10a3.57 3.57 0 0 1 5.677-.672l8.228-4.75A3.562 3.562 0 0 1 19.8 0a3.562 3.562 0 0 1 3.564 3.565c0 .354-.052.696-.148 1.019zm-.857 1.463l8.245 4.76a3.56 3.56 0 0 0 2.566 4.435v9.513a3.601 3.601 0 0 0-.138.037L22.265 6.142c.032-.03.064-.063.095-.095zm-5.023.097L6.57 24.794a3.591 3.591 0 0 0-.14-.038v-9.514a3.56 3.56 0 0 0 2.564-4.44l8.242-4.759.102.101zm3.459.845L31.56 25.634a3.574 3.574 0 0 0-1.003 1.74H9.042A3.575 3.575 0 0 0 8.04 25.64L18.807 6.99a3.576 3.576 0 0 0 1.989 0zm1.64 27.044l8.191-4.729a3.597 3.597 0 0 1-.066-.234H9.037a3.598 3.598 0 0 1-.037.138l8.232 4.753a3.554 3.554 0 0 1 2.568-1.09 3.555 3.555 0 0 1 2.636 1.162z"/></symbol><symbol id="javascript" viewBox="0 0 40 40"><g fill="none"><path fill="#F7DF1E" d="M0 0h40v40H0z"/><path fill="#000" d="M11 33.51l3.134-1.88c.605 1.063 1.155 1.962 2.475 1.962 1.265 0 2.062-.49 2.062-2.398V18.218h3.85v13.03C22.52 35.2 20.182 37 16.773 37c-3.08 0-4.867-1.582-5.774-3.49m13.61-.408l3.135-1.8c.825 1.336 1.897 2.318 3.794 2.318 1.595 0 2.612-.79 2.612-1.881 0-1.309-1.045-1.772-2.804-2.535l-.962-.41c-2.777-1.171-4.62-2.643-4.62-5.75 0-2.863 2.2-5.044 5.637-5.044 2.447 0 4.206.845 5.471 3.053l-2.997 1.908c-.66-1.172-1.375-1.635-2.474-1.635-1.128 0-1.843.709-1.843 1.635 0 1.145.715 1.609 2.365 2.318l.962.409C36.158 27.078 38 28.494 38 31.684 38 35.12 35.278 37 31.621 37c-3.574 0-5.883-1.69-7.01-3.898"/></g></symbol><symbol id="react" viewBox="0 0 40 40"><g fill="#00D8FF" transform="translate(0 2)"><circle cx="20" cy="18.18" r="3.64"/><path d="M20.007 26.364c-5.02 0-9.405-.593-12.688-1.722-2.129-.73-3.937-1.701-5.226-2.809C.726 20.661 0 19.383 0 18.146c0-2.372 2.592-4.695 6.942-6.21C10.502 10.693 15.144 10 20 10c4.77 0 9.349.672 12.887 1.9 2.072.715 3.816 1.644 5.055 2.673C39.288 15.703 40 16.938 40 18.146c0 2.465-2.898 4.96-7.569 6.51-3.303 1.1-7.718 1.708-12.424 1.708zm0-14.649c-4.607 0-9.163.672-12.495 1.836-4.002 1.401-5.796 3.316-5.796 4.595 0 1.33 1.93 3.423 6.159 4.873 3.104 1.065 7.305 1.63 12.132 1.63 4.528 0 8.75-.572 11.89-1.622 4.393-1.465 6.401-3.559 6.401-4.88 0-.68-.512-1.48-1.445-2.259-1.075-.9-2.642-1.722-4.514-2.372-3.368-1.158-7.747-1.801-12.332-1.801z"/><path d="M12.348 35.455c-.727 0-1.369-.157-1.91-.469-2.047-1.178-2.76-4.57-1.897-9.077.706-3.697 2.431-8.04 4.862-12.234 2.389-4.117 5.255-7.736 8.085-10.184 1.654-1.434 3.33-2.484 4.84-3.038 1.647-.603 3.073-.603 4.114-.007 2.132 1.22 2.838 4.968 1.84 9.765-.706 3.407-2.389 7.516-4.741 11.582-2.51 4.33-5.219 7.82-7.835 10.099-1.697 1.476-3.444 2.555-5.04 3.115-.835.299-1.62.448-2.318.448zm1.79-21.355l.741.426c-2.303 3.974-4.007 8.24-4.662 11.703-.792 4.151-.029 6.65 1.069 7.281.27.156.627.241 1.062.241 1.419 0 3.65-.894 6.231-3.136 2.474-2.15 5.062-5.5 7.479-9.666 2.267-3.91 3.878-7.842 4.548-11.071.934-4.52.128-7.289-1.02-7.949-.584-.333-1.532-.29-2.673.128-1.319.483-2.809 1.427-4.306 2.725-2.688 2.328-5.432 5.791-7.728 9.751l-.741-.433z"/><path d="M28.535 35.455c-1.935 0-4.389-1.165-6.95-3.366-2.86-2.456-5.77-6.112-8.202-10.308-2.39-4.117-4.097-8.398-4.816-12.069-.42-2.144-.498-4.11-.228-5.693.3-1.726 1.003-2.954 2.05-3.557 2.12-1.228 5.726.035 9.396 3.294 2.604 2.307 5.336 5.814 7.69 9.875 2.511 4.33 4.197 8.413 4.866 11.806.434 2.201.505 4.246.2 5.907-.328 1.768-1.068 3.024-2.135 3.642-.533.312-1.167.469-1.87.469zM14.863 20.929c2.305 3.976 5.164 7.575 7.839 9.868 3.208 2.755 5.755 3.351 6.858 2.712 1.145-.66 1.984-3.365 1.116-7.738-.64-3.209-2.255-7.114-4.673-11.28-2.27-3.913-4.88-7.27-7.349-9.457-3.457-3.067-6.26-3.756-7.405-3.096-.583.334-1.017 1.179-1.224 2.372-.234 1.377-.163 3.138.22 5.076.684 3.485 2.32 7.582 4.618 11.543z"/></g></symbol><symbol id="mongodb" viewBox="0 0 40 40"><g fill="none" fill-rule="evenodd"><path fill="#599636" d="M19.858.11l1.068 2.004c.24.37.5.698.806 1.003a28.24 28.24 0 0 1 2.505 2.832c1.808 2.375 3.028 5.013 3.9 7.865.522 1.742.805 3.53.827 5.337.087 5.403-1.765 10.043-5.5 13.898a15.88 15.88 0 0 1-1.962 1.678c-.37 0-.545-.284-.698-.545a4.488 4.488 0 0 1-.544-1.569c-.132-.654-.218-1.307-.175-1.982v-.305c-.03-.065-.356-30.063-.226-30.216z"/><path fill="#6CAC48" d="M19.858.043c-.044-.087-.087-.021-.131.021.021.438-.132.828-.37 1.2-.263.37-.61.654-.959.959-1.937 1.677-3.462 3.704-4.683 5.97-1.625 3.05-2.463 6.318-2.7 9.759-.109 1.24.393 5.62.784 6.884 1.067 3.355 2.985 6.166 5.468 8.605.61.588 1.263 1.133 1.938 1.656.196 0 .217-.175.262-.305a6.04 6.04 0 0 0 .196-.85l.437-3.267L19.858.043z"/><path fill="#C2BFBF" d="M20.926 36.053c.043-.5.283-.915.545-1.328-.263-.109-.458-.325-.61-.566a4.026 4.026 0 0 1-.325-.72c-.305-.914-.37-1.874-.458-2.809v-.566c-.108.087-.131.827-.131.937a21.43 21.43 0 0 1-.392 2.942c-.065.392-.109.784-.35 1.132 0 .044 0 .087.02.153.393 1.155.5 2.33.567 3.53v.437c0 .522-.021.412.412.587.175.066.37.088.545.218.132 0 .153-.109.153-.196l-.065-.719V37.08c-.021-.35.044-.697.087-1.025l.002-.002z"/></g></symbol><symbol id="sass" viewBox="0 0 40 40"><path fill="#CF649A" d="M34.434 22.217a8.24 8.24 0 0 0-3.625.844c-.375-.742-.75-1.39-.813-1.875-.07-.563-.156-.907-.07-1.578.086-.672.476-1.626.476-1.704-.008-.07-.086-.414-.89-.422-.805-.008-1.5.157-1.579.368a8.974 8.974 0 0 0-.336 1.195c-.14.734-1.61 3.336-2.445 4.703-.274-.53-.508-1-.555-1.375-.07-.562-.156-.906-.07-1.578s.476-1.625.476-1.703c-.007-.07-.086-.414-.89-.422-.805-.008-1.5.156-1.578.367-.079.211-.165.711-.336 1.196-.165.484-2.118 4.828-2.626 5.961a24.13 24.13 0 0 1-.648 1.352c-.164.312-.008.023-.024.054l-.218.414v.008c-.11.196-.227.383-.282.383-.039 0-.117-.523.016-1.242.289-1.508.992-3.86.984-3.946 0-.039.133-.453-.453-.664-.57-.21-.773.14-.82.14-.047 0-.086.126-.086.126s.633-2.649-1.211-2.649c-1.157 0-2.75 1.258-3.54 2.407-.5.273-1.562.851-2.687 1.469-.43.234-.875.484-1.297.71l-.086-.093c-2.235-2.383-6.368-4.071-6.196-7.274.062-1.165.469-4.235 7.938-7.954 6.118-3.047 11.017-2.211 11.868-.352 1.211 2.657-2.617 7.595-8.977 8.306-2.422.273-3.696-.665-4.016-1.016-.336-.367-.383-.383-.508-.313-.203.11-.078.438 0 .633.188.492.97 1.367 2.297 1.805 1.164.383 4.008.594 7.446-.734 3.852-1.493 6.86-5.634 5.977-9.095-.898-3.524-6.742-4.68-12.266-2.719-3.29 1.172-6.853 3-9.415 5.399C.322 14.193-.163 16.678.04 17.709c.711 3.68 5.782 6.079 7.813 7.852-.101.055-.195.11-.28.156-1.017.5-4.884 2.524-5.853 4.665-1.094 2.422.172 4.164 1.016 4.399 2.61.726 5.282-.578 6.727-2.727 1.438-2.149 1.266-4.938.602-6.212l-.024-.046.797-.47a47.887 47.887 0 0 1 1.469-.828c-.25.68-.43 1.485-.523 2.657-.11 1.375.453 3.156 1.195 3.86.328.304.719.312.96.312.86 0 1.251-.71 1.68-1.562.532-1.04 1-2.243 1-2.243s-.585 3.258 1.017 3.258c.586 0 1.172-.758 1.437-1.148v.008s.016-.024.047-.079c.033-.048.064-.098.094-.148v-.016c.234-.406.758-1.336 1.539-2.875 1.008-1.984 1.977-4.469 1.977-4.469s.094.61.383 1.61c.171.593.546 1.242.836 1.875-.235.328-.375.515-.375.515l.007.008c-.187.25-.398.516-.617.782-.797.953-1.75 2.039-1.875 2.351-.148.368-.117.641.172.86.21.156.586.187.984.156a4.385 4.385 0 0 0 1.47-.336c.39-.14.835-.352 1.265-.664.781-.578 1.258-1.399 1.211-2.492-.023-.602-.219-1.196-.461-1.758.07-.102.14-.204.211-.313 1.234-1.805 2.188-3.79 2.188-3.79s.093.61.383 1.61c.148.508.445 1.063.71 1.61-1.156.945-1.882 2.04-2.132 2.758-.461 1.328-.102 1.93.578 2.07.304.063.742-.078 1.07-.218a4.85 4.85 0 0 0 1.352-.696c.781-.578 1.531-1.383 1.492-2.469-.023-.5-.156-.992-.336-1.46.985-.407 2.258-.641 3.875-.446 3.477.406 4.165 2.578 4.032 3.485-.133.906-.86 1.406-1.102 1.562-.242.149-.32.203-.296.313.03.164.14.156.351.125.29-.047 1.828-.742 1.89-2.414.095-2.15-1.945-4.493-5.562-4.47zm-26.815 9.04c-1.148 1.258-2.766 1.734-3.453 1.328-.743-.43-.454-2.281.96-3.617.86-.813 1.977-1.563 2.712-2.024.164-.102.414-.25.71-.43a5.641 5.641 0 0 0 .258-.156c.524 1.906.024 3.579-1.187 4.899zm8.4-5.712c-.4.977-1.243 3.485-1.75 3.345-.439-.118-.704-2.016-.087-3.891.313-.946.977-2.07 1.367-2.509.633-.703 1.32-.937 1.493-.648.203.375-.774 3.094-1.024 3.703zm6.93 3.313c-.172.086-.329.149-.399.102-.055-.031.07-.149.07-.149s.868-.93 1.211-1.359c.196-.25.43-.539.68-.867v.093c0 1.126-1.078 1.876-1.562 2.18zm5.344-1.219c-.125-.093-.11-.382.312-1.289.164-.36.54-.96 1.188-1.531.078.234.125.46.117.672-.008 1.406-1.008 1.93-1.617 2.148z"/></symbol><symbol id="sketch" viewBox="0 0 40 40"><g fill="none"><path fill="#EA6C00" d="M8.1 15.906L20 39.196 0 15.906zm23.8 0L20 39.196l20-23.29z"/><path fill="#FDAD00" d="M8.1 15.906h23.8L20 39.196z"/><path fill="#FDD231" d="M20 3L8.73 4.19 8.1 15.91z"/><path fill="#FDD231" d="M19.996 3l11.27 1.19.63 11.72z"/><path fill="#FDAD00" d="M40 15.901l-8.73-11.71.63 11.71zm-40 0l8.73-11.71-.63 11.71z"/><path fill="#FEEEB7" d="M20 3L8.1 15.91h23.8z"/></g></symbol><symbol id="typescript" viewBox="0 0 40 40"><g fill="none" fill-rule="evenodd"><path fill="#007ACC" d="M0 20V0h40v40H0z"/><path fill="#FFF" d="M8.77 20.068V21.7h5.198v14.802h3.692V21.699h5.198v-1.601c0-.899 0-1.631-.039-1.65 0-.03-3.17-.04-7.021-.04l-7 .03v1.64l-.028-.01zm23.369-1.67c1.019.241 1.8.7 2.5 1.43.37.4.92 1.1.96 1.279 0 .058-1.729 1.23-2.78 1.881-.04.03-.199-.14-.361-.4-.521-.739-1.052-1.061-1.882-1.12-1.201-.081-1.999.55-1.999 1.598 0 .32.06.502.18.759.27.55.771.879 2.32 1.56 2.862 1.23 4.102 2.04 4.85 3.199.85 1.299 1.04 3.34.47 4.87-.642 1.67-2.201 2.8-4.43 3.17-.7.12-2.302.101-3.051-.029-1.598-.3-3.131-1.1-4.069-2.129-.371-.4-1.08-1.471-1.038-1.54l.38-.24 1.501-.87 1.13-.66.26.351c.329.521 1.071 1.22 1.5 1.462 1.3.67 3.041.58 3.9-.199.372-.338.531-.7.531-1.201 0-.459-.072-.67-.3-1.019-.318-.44-.96-.8-2.76-1.598-2.07-.88-2.949-1.439-3.77-2.302-.468-.52-.898-1.331-1.1-1.998-.15-.58-.198-1.999-.058-2.572.43-1.999 1.94-3.398 4.101-3.799.7-.14 2.35-.081 3.04.101l-.025.016z"/></g></symbol><symbol id="restapi" viewBox="0 0 40 40"><path d="M33.462 6.314l.844 1.11a.668.668 0 0 1-.127.934l-.896.68c.163.434.267.896.31 1.368l1.019.14a.668.668 0 0 1 .57.752l-.19 1.384a.665.665 0 0 1-.752.57l-1.113-.154a5.19 5.19 0 0 1-.752 1.185l.625.82a.669.669 0 0 1-.13.935l-1.11.843a.671.671 0 0 1-.934-.127l-.68-.895a5.242 5.242 0 0 1-1.371.31l-.14 1.018a.668.668 0 0 1-.752.57l-1.384-.19a.668.668 0 0 1-.57-.751l.153-1.113a5.367 5.367 0 0 1-1.184-.75l-.82.623a.668.668 0 0 1-.935-.127l-.843-1.11a.668.668 0 0 1 .127-.935l.895-.68a5.248 5.248 0 0 1-.31-1.367l-1.018-.14a.665.665 0 0 1-.57-.752l.189-1.384a.67.67 0 0 1 .752-.57l1.113.153c.199-.43.453-.83.749-1.185l-.622-.82a.665.665 0 0 1 .127-.93l1.11-.844a.668.668 0 0 1 .934.127l.68.895a5.218 5.218 0 0 1 1.368-.31l.14-1.018a.67.67 0 0 1 .752-.573l1.384.189a.665.665 0 0 1 .57.752l-.154 1.113c.433.199.83.453 1.189.752l.82-.622a.669.669 0 0 1 .937.124zM9.66 25.85v-5.372h2.767c.514 0 .905.043 1.175.134.27.088.492.25.655.488.166.24.25.53.25.872 0 .297-.065.557-.192.772a1.479 1.479 0 0 1-.524.527c-.14.085-.335.157-.583.212.199.068.342.13.43.199.062.045.15.14.264.283.114.143.192.257.23.335l.808 1.553h-1.875l-.885-1.638c-.114-.211-.212-.351-.3-.413a.714.714 0 0 0-.407-.124h-.146v2.175H9.659v-.003zm5.853 9.352h-3.099l-.446 1.459H9.174l3.33-8.852H15.5l3.317 8.852h-2.864l-.44-1.459zm-.58-1.917l-.966-3.184-.97 3.184h1.937zm4.529-5.476h4.551c.993 0 1.735.235 2.227.707.491.472.739 1.146.739 2.015 0 .895-.27 1.595-.808 2.1-.537.504-1.36.755-2.464.755h-1.5v3.275H19.46v-8.852zm2.744 3.783h.674c.53 0 .905-.091 1.12-.277a.885.885 0 0 0 .322-.703.983.983 0 0 0-.28-.706c-.185-.192-.537-.29-1.051-.29h-.785v1.976zm5.88-3.783h2.744v8.852h-2.744v-8.852zm-16.76-5.15h.7c.076 0 .222-.026.44-.074a.437.437 0 0 0 .27-.17.49.49 0 0 0 .105-.312c0-.173-.056-.31-.167-.4-.11-.095-.315-.14-.618-.14h-.73v1.096zm3.933-2.18h4.444v1.145h-2.777v.856H19.5v1.094h-2.575v1.058h2.858v1.214h-4.525v-5.368zm4.92 3.593l1.575-.097c.032.257.104.449.208.582.173.215.417.326.733.326.234 0 .42-.056.547-.166a.504.504 0 0 0 .192-.388.499.499 0 0 0-.183-.374c-.12-.11-.403-.212-.85-.312-.725-.163-1.243-.381-1.555-.652a1.307 1.307 0 0 1-.47-1.035c0-.276.082-.537.242-.781.16-.244.4-.44.722-.58.323-.14.762-.208 1.322-.208.687 0 1.208.127 1.57.384.357.257.572.661.64 1.221l-1.559.094c-.042-.244-.13-.423-.26-.53-.134-.11-.32-.166-.55-.166-.193 0-.339.042-.437.123a.377.377 0 0 0-.146.3c0 .085.042.16.12.231.078.068.26.137.554.199.726.156 1.247.315 1.559.475.313.16.544.358.684.596.143.234.215.501.215.794 0 .345-.095.66-.287.95-.189.29-.456.512-.798.661-.341.15-.771.225-1.292.225-.911 0-1.546-.176-1.898-.527-.351-.358-.55-.804-.599-1.345zm5.113-3.594h5.05v1.328h-1.693v4.044h-1.66v-4.044H25.29v-1.328zM19.705 7.73a10.317 10.317 0 0 0-1.794.02c-1.832.175-3.613.843-5.085 1.985-1.702 1.319-2.994 3.292-3.493 5.906l-.156.817-.814.143c-.797.14-1.51.332-2.135.576a7.142 7.142 0 0 0-1.618.866c-.378.274-.703.58-.98.912-.856 1.025-1.253 2.311-1.244 3.613a6.534 6.534 0 0 0 1.234 3.754c.296.407.638.781 1.029 1.107.397.328.843.602 1.344.807.284.117.586.215.902.293v2.438a8.802 8.802 0 0 1-1.81-.524 7.541 7.541 0 0 1-1.97-1.182 8.407 8.407 0 0 1-1.432-1.536A8.953 8.953 0 0 1 0 22.575c-.013-1.843.56-3.676 1.797-5.16A7.69 7.69 0 0 1 3.21 16.1a9.525 9.525 0 0 1 2.162-1.156c.56-.218 1.159-.4 1.79-.547.716-2.845 2.243-5.036 4.206-6.556 1.836-1.423 4.047-2.253 6.322-2.471a12.902 12.902 0 0 1 3.59.16 2.734 2.734 0 0 0-.061.325l-.003.02c-.023.185-.033.37-.023.56-.25.097-.485.23-.697.393l-.01.007a2.914 2.914 0 0 0-.78.895zm17.224 6.25a8.935 8.935 0 0 1 1.517 1.794c1.042 1.602 1.576 3.74 1.553 5.834-.022 2.054-.576 4.098-1.709 5.602-.739.98-1.686 1.781-2.822 2.416-.778.436-1.654.798-2.608 1.09v-2.522c.515-.193.993-.407 1.433-.652.856-.478 1.556-1.06 2.08-1.76.814-1.085 1.214-2.618 1.23-4.19.02-1.65-.384-3.308-1.168-4.512a6.756 6.756 0 0 0-1.039-1.247 3.14 3.14 0 0 0 .013-.495c.25-.098.485-.231.697-.394l.01-.006c.335-.258.615-.583.813-.958zm-8.255-5.814a2.744 2.744 0 0 1-.745 5.437 2.74 2.74 0 0 1-2.345-3.09 2.746 2.746 0 0 1 3.09-2.347z"/></symbol><symbol id="tailwindcss" viewBox="0 0 40 40"><defs><linearGradient id="a" x1="0%" y1="0%" y2="100%"><stop offset="0%" stop-color="#2383AE"/><stop offset="100%" stop-color="#6DD7B9"/></linearGradient></defs><path fill="url(#a)" fill-rule="evenodd" d="M10 8c1.333-5.333 4.667-8 10-8 8 0 9 6 13 7 2.667.667 5-.333 7-3-1.333 5.333-4.667 8-10 8-8 0-9-6-13-7-2.667-.667-5 .333-7 3zM0 20c1.333-5.333 4.667-8 10-8 8 0 9 6 13 7 2.667.667 5-.333 7-3-1.333 5.333-4.667 8-10 8-8 0-9-6-13-7-2.667-.667-5 .333-7 3z" transform="translate(0 8)"/></symbol><symbol id="styledcomponents" viewBox="0 0 40 40"><g fill="none"><path fill="#FFCEBF" d="M22.047 33.6c.042-.094.148-.16.225-.24 1.175-1.232 2.36-2.453 3.52-3.7A3.2 3.2 0 0 0 26.804 27a5.925 5.925 0 0 0-.143-.623c-.316.3-.61.573-.906.848-.46.428-.918.858-1.382 1.28a1.931 1.931 0 0 1-2.148.42 1.973 1.973 0 0 1-1.29-1.75 1.04 1.04 0 0 0-.043-.146c-.353.3-.69.576-1.026.86l-6.963 5.9c-.048.04-.1.092-.145.132h9.283l-.014-.01c-.05-.034-.024-.218.02-.31zm-9.713 0c.083-.107.182-.2.295-.275l9.636-8.175c.658-.558 1.312-1.12 1.963-1.683a.523.523 0 0 0 .182-.224 5.364 5.364 0 0 0 .065-2.07c-.1.07-.154.1-.2.15-.789.706-1.574 1.418-2.367 2.12a1.762 1.762 0 0 1-2.048.329 1.889 1.889 0 0 1-1.08-1.807v-.324c-.145.106-.25.177-.35.257a23428.47 23428.47 0 0 1-11.568 9.257c-.174.139-.382.449-.61.148-.228-.301.12-.425.294-.565 4.11-3.298 8.222-6.593 12.336-9.885.67-.537.714-.762.278-1.615l-.26.244c-.713.663-1.434 1.317-2.136 1.99a2.121 2.121 0 0 1-3.585-1.336c-.133.1-.248.173-.357.258l-6.1 4.728c-.105.103-.225.19-.356.258a.446.446 0 0 1-.3-.015v8.56h6.256a.365.365 0 0 1 .012-.324z"/><path fill="#FF6196" d="M29.234 6.424c-.17.557-.335 1.115-.484 1.678-.285.824.105 1.73.9 2.09a7.122 7.122 0 0 0 3.818.8V6.519a.73.73 0 0 1 .016-.294.666.666 0 0 1 .105-.15H29.23c.067.079.044.216.004.349z"/><path fill="#FF87AF" d="M20.48 16.033c-.022.499-.196.98-.5 1.376a22.671 22.671 0 0 1-3.727 3.792 1.442 1.442 0 0 1-1.684.2 1.393 1.393 0 0 1-.843-1.368c.032-.353.179-.686.417-.947a35.848 35.848 0 0 1 5.02-3.993.71.71 0 0 1 .828-.034c.333.207.522.583.488.974zm-1.199 6.061a1.437 1.437 0 0 1 .448-1.2 38.336 38.336 0 0 1 4.87-3.813c.052-.033.1-.066.157-.1a.837.837 0 0 1 1.025.035.86.86 0 0 1 .242.979 4.39 4.39 0 0 1-1.168 1.908 118.836 118.836 0 0 1-3.4 3.22 1.124 1.124 0 0 1-1.364.192 1.512 1.512 0 0 1-.81-1.221zm7.216.661c-.28.3-.568.586-.837.893a1.89 1.89 0 0 0-.2.38c.148.044.321.16.441.119.611-.205 1.207-.451 1.878-.71-.146.336-.256.646-.41.93a12.189 12.189 0 0 1-2.372 2.872c-.354.342-.723.669-1.105.98a1.484 1.484 0 0 1-2.415-.92 1.1 1.1 0 0 1 .238-.812 22.187 22.187 0 0 1 4.623-3.823.193.193 0 0 1 .065-.013l.094.104z"/><path fill="#FF6196" d="M28.791 18.772l1.711-7.6 1.2.28-.619 1.882c-.578 1.75-1.163 3.5-1.727 5.252-.11.324-.254.384-.565.186zm-1.931 4.47c.18-.691.36-1.33.512-1.976a4.46 4.46 0 0 1 .826-1.721c.243-.32.516-.192.795-.123.258.063.323.252.334.5a2.845 2.845 0 0 1-.588 1.907 4.8 4.8 0 0 1-1.88 1.413z"/><path fill="#000" d="M33.99 6.895c.015-.223.01-.447-.017-.668a.291.291 0 0 0-.116-.151.381.381 0 0 0-.152-.075c-.032-.006-.077.027-.12.074a.666.666 0 0 0-.105.149.73.73 0 0 0-.016.294v4.472a7.122 7.122 0 0 1-3.818-.8 1.688 1.688 0 0 1-.9-2.09c.15-.563.314-1.121.484-1.678.04-.133.063-.27 0-.348a.2.2 0 0 0-.135-.064.3.3 0 0 0-.182.064.434.434 0 0 0-.17.19c-.2.6-.377 1.206-.53 1.818-.058.24-.073.49-.046.737.08.91.682 1.692 1.542 2 .19.079.3.157.247.406-.073.316-.144.632-.216.949-.49 2.148-.977 4.297-1.462 6.447a.483.483 0 0 1-.12.257 3.22 3.22 0 0 0-.792.92 4.8 4.8 0 0 0-.53 1.5.981.981 0 0 1-.558.785c-.417.21-.8.484-1.263.768.031-.557.025-1.115-.018-1.671a1.062 1.062 0 0 1 .284-.96 4.75 4.75 0 0 0 1.258-2.194 1.294 1.294 0 0 0-1.208-1.7 1.7 1.7 0 0 0-.929.264 68.767 68.767 0 0 0-2.812 2.026c-.547.412-1.062.868-1.592 1.3a.418.418 0 0 1-.059-.081.842.842 0 0 0-.059-.214c-.443-.684-.136-1.181.345-1.692a2.793 2.793 0 0 0 .772-1.951c.016-.37-.1-.734-.327-1.026a1.459 1.459 0 0 0-.438-.363 1.337 1.337 0 0 0-1.517.162l-.279.2c-.637.456-1.282.9-1.895 1.388a64.278 64.278 0 0 0-2.626 2.214c-.4.353-.692.835-1.107 1.163-2.164 1.709-4.35 3.387-6.53 5.076a1.022 1.022 0 0 0-.205.16.164.164 0 0 0-.016.03c-.046.107-.085.284-.03.349a.13.13 0 0 0 .046.033c.095.04.201.045.3.015.131-.068.251-.155.356-.258l6.1-4.728c.11-.085.224-.162.357-.258a2.121 2.121 0 0 0 3.585 1.337c.7-.674 1.423-1.328 2.136-1.991l.26-.244c.436.853.392 1.078-.278 1.615-4.117 3.294-8.231 6.59-12.343 9.886-.175.14-.52.267-.294.565.227.298.436-.01.61-.148a7935.59 7935.59 0 0 0 11.564-9.254c.1-.08.205-.151.35-.257v.324a1.89 1.89 0 0 0 1.08 1.807 1.762 1.762 0 0 0 2.048-.33c.793-.7 1.578-1.413 2.367-2.12.05-.044.108-.078.2-.148.113.687.091 1.39-.065 2.069a.523.523 0 0 1-.182.224c-.652.563-1.306 1.124-1.963 1.683l-9.632 8.176a1.239 1.239 0 0 0-.295.276.365.365 0 0 0-.012.32c.092.07.21.092.32.064a.294.294 0 0 0 .116-.065c.05-.04.1-.091.145-.132l6.963-5.9c.335-.284.673-.564 1.026-.86.018.047.032.096.043.146a1.975 1.975 0 0 0 1.29 1.75 1.931 1.931 0 0 0 2.148-.42c.464-.422.922-.852 1.382-1.28.3-.275.59-.551.906-.848.06.205.107.413.143.624a3.2 3.2 0 0 1-1.014 2.649c-1.159 1.248-2.344 2.469-3.519 3.7-.077.08-.183.146-.225.24-.042.096-.069.282-.019.322l.014.009a.573.573 0 0 0 .338.05.136.136 0 0 0 .081-.05c.028-.03.055-.065.082-.092.952-.984 1.91-1.963 2.854-2.954.382-.387.74-.795 1.074-1.223a3.411 3.411 0 0 0 .61-3.616.516.516 0 0 1 .074-.386c.065-.112.137-.221.211-.33.237-.307.434-.643.587-1a7.547 7.547 0 0 1 1.34-2.4 2.795 2.795 0 0 0 .5-2.468.988.988 0 0 1 0-.49c.505-1.566 1.026-3.128 1.542-4.691.232-.7.462-1.398.69-2.094l.213-.647c.454 0 .882-.01 1.308 0 .354.01.462-.156.458-.5-.02-1.38-.013-2.76-.013-4.138zM16.253 21.2a1.442 1.442 0 0 1-1.684.2 1.393 1.393 0 0 1-.843-1.368c.032-.353.179-.686.417-.947a35.848 35.848 0 0 1 5.02-3.993.852.852 0 0 1 .325-.14.656.656 0 0 1 .238 0 .763.763 0 0 1 .265.106c.334.207.522.584.488.975-.02.499-.195.98-.5 1.376a22.671 22.671 0 0 1-3.726 3.79zm5.2 1.929a1.124 1.124 0 0 1-1.364.192 1.512 1.512 0 0 1-.81-1.224 1.437 1.437 0 0 1 .448-1.2 38.336 38.336 0 0 1 4.87-3.813c.052-.033.1-.066.157-.1a.837.837 0 0 1 1.025.035.86.86 0 0 1 .242.979 4.39 4.39 0 0 1-1.168 1.908c-1.103 1.102-2.25 2.163-3.398 3.219l-.002.004zm5.911 1.24a12.189 12.189 0 0 1-2.367 2.869c-.354.342-.723.669-1.105.98a1.484 1.484 0 0 1-2.415-.92 1.1 1.1 0 0 1 .238-.812 22.187 22.187 0 0 1 4.623-3.823.193.193 0 0 1 .065-.013l.1.1c-.28.3-.568.586-.837.893a1.89 1.89 0 0 0-.2.38c.148.044.321.16.441.119.483-.162.958-.35 1.467-.55l.411-.16c-.154.34-.264.65-.419.934l-.002.004zm1.373-2.534c-.373.475-.84.867-1.373 1.152a7.378 7.378 0 0 1-.507.258c.178-.681.356-1.312.507-1.95l.006-.026a4.46 4.46 0 0 1 .826-1.721c.243-.32.516-.192.795-.123.258.063.323.252.334.5a2.845 2.845 0 0 1-.586 1.906l-.002.004zm2.34-8.5c-.578 1.75-1.163 3.5-1.727 5.252-.106.329-.25.389-.56.19l1.482-6.592.228-1.012 1.2.28-.24.732-.383 1.15z"/></g></symbol><symbol id="zeplin" viewBox="0 0 40 40"><g fill="none" fill-rule="evenodd"><path fill="#FDBD39" d="M6.166 26.045l-2.094.765-.114 6.224 7.243-2.647c-2.48-.833-4.297-2.301-5.035-4.342z"/><path fill="#F69833" d="M7.26 19.463L0 22.113l4.072 4.697 2.094-.765c-.74-2.035-.284-4.333 1.093-6.582z"/><path fill="#FECF33" d="M19.48 10.478C10.235 13.857 4.274 20.827 6.166 26.045l33.48-12.23c-1.891-5.222-10.921-6.713-20.166-3.337z"/><path fill="#EE6723" d="M26.332 29.381c9.245-3.379 15.218-10.316 13.314-15.566l-33.48 12.23c1.904 5.25 10.921 6.715 20.166 3.336z"/><path fill="#F69833" d="M39.646 13.815l-33.48 12.23c.654 1.806 3.154 2.698 6.663 2.698 3.421 0 7.8-.846 12.364-2.513 9.245-3.375 15.749-8.844 14.453-12.415z"/><path fill="#FDBD39" d="M32.983 11.116c-3.422 0-7.797.846-12.364 2.513-9.245 3.38-15.75 8.845-14.457 12.416l33.48-12.23c-.65-1.81-3.15-2.699-6.66-2.699z"/><path fill="#EE6723" d="M31.134 33.366c-.987 0-2.439-.889-4.32-2.647-2.227-2.076-4.776-5.117-7.178-8.561-2.403-3.444-4.378-6.891-5.56-9.7-1.29-3.06-1.472-4.946-.547-5.597.202-.143.45-.214.726-.214.752 0 2.22.56 4.935 3.232l.059.059-.007.084c-.02.192-.036.388-.052.576l-.03.378-.266-.267c-2.924-2.946-4.213-3.265-4.63-3.265a.48.48 0 0 0-.283.072c-.4.283-.426 1.663.82 4.632 1.163 2.76 3.11 6.152 5.48 9.551 2.373 3.402 4.882 6.397 7.07 8.438 2.357 2.197 3.418 2.435 3.766 2.435a.51.51 0 0 0 .29-.075c.423-.3.423-1.778-.97-4.974l-.065-.147.14-.075.403-.224.17-.095.078.176c.99 2.263 1.91 5.14.7 5.99a1.231 1.231 0 0 1-.73.218zm0-.352v.176-.176z"/><path fill="#EE6723" d="M26.557 29.287l-.013.176c-.235 2.89-.85 6.37-2.455 6.51-.032.004-.065.004-.1.004-1.091 0-2.123-1.563-3.067-4.642-.892-2.914-1.586-6.827-1.95-11.02-.365-4.19-.362-8.164.016-11.191.41-3.298 1.188-5.02 2.315-5.12C21.335 4 21.37 4 21.407 4c.79 0 1.982.895 3.203 5.065l-.798.153c-.406-1.393-.852-2.526-1.292-3.307-.407-.72-.804-1.117-1.116-1.117h-.03c-.488.043-1.198 1.228-1.595 4.424-.368 2.972-.374 6.888-.013 11.023.361 4.137 1.042 7.991 1.92 10.853.395 1.282.824 2.337 1.247 3.053.391.661.765 1.026 1.062 1.026h.029c.469-.043 1.348-1.273 1.719-5.61l.814-.276z"/></g></symbol></svg>