<?xml version="1.0" encoding="UTF-8"?>
<svg width="48px" height="48px" viewBox="0 0 48 48" version="1.1" xmlns="http://www.w3.org/2000/svg" xmlns:xlink="http://www.w3.org/1999/xlink">
    <title>behance</title>
    <g id="Web" stroke="none" stroke-width="1" fill="none" fill-rule="evenodd">
        <g id="01_Homepage" transform="translate(-986.000000, -4859.000000)" fill="#FFFFFF" fill-rule="nonzero">
            <g id="behance" transform="translate(986.000000, 4859.000000)">
                <path d="M19.3163785,19.017821 C19.3163785,16.7535959 17.7759591,16.7535959 17.7759591,16.7535959 L16.9603274,16.7535959 L11.4384859,16.7535959 L11.4384859,21.6120307 L17.3831202,21.6120307 C18.4103939,21.6115396 19.3163785,21.2830281 19.3163785,19.017821 Z" id="Path"></path>
                <path d="M17.7764501,24.9678507 L11.4384859,24.9678507 L11.4384859,30.7867826 L17.4837852,30.7867826 C18.3932072,30.760757 20.0716113,30.4759488 20.0716113,27.9583427 C20.0716113,24.9374118 17.7764501,24.9678507 17.7764501,24.9678507 Z" id="Path"></path>
                <path d="M34.0016777,21.6115396 C30.6384859,21.6115396 30.1695345,24.9678568 30.1695345,24.9678568 L37.3217225,24.9678568 C37.3221483,24.9678568 37.3648696,21.6115396 34.0016777,21.6115396 Z" id="Path"></path>
                <path d="M24,0 C10.7451253,0 0,10.7456164 0,24 C0,37.2543836 10.7451253,48 24,48 C37.2548747,48 48,37.2543836 48,24 C48,10.7456164 37.2548747,0 24,0 Z M29.2326138,14.1657698 L38.2158568,14.1657698 L38.2158568,16.8468951 L29.2326138,16.8468951 L29.2326138,14.1657698 Z M24.6923785,28.2284194 C24.6923785,34.8737801 17.7764501,34.6552634 17.7764501,34.6552634 L11.4384859,34.6552634 L11.2523785,34.6552634 L6.44648593,34.6552634 L6.44648593,12.8831509 L11.2523785,12.8831509 L11.4384859,12.8831509 L17.7759591,12.8831509 C21.2191918,12.8831509 23.9371458,14.784 23.9371458,18.6799795 C23.9371458,22.5764501 20.614711,22.8234476 20.614711,22.8234476 C24.9943734,22.8234476 24.6923785,28.2284194 24.6923785,28.2284194 Z M34.044399,31.6623223 C37.6634271,31.6623223 37.5352634,29.3200205 37.5352634,29.3200205 L41.3669156,29.3200205 C41.3669156,35.5362046 33.9167263,35.1104655 33.9167263,35.1104655 C24.9762046,35.1104655 25.5512225,26.7871918 25.5512225,26.7871918 C25.5512225,26.7871918 25.5443478,18.4226701 33.9157442,18.4226701 C42.7285934,18.4226701 41.4945882,27.8729003 41.4945882,27.8729003 L30.2127468,27.8729003 C30.2127468,31.9186496 34.044399,31.6623223 34.044399,31.6623223 Z" id="Shape"></path>
            </g>
        </g>
    </g>
</svg>