<?xml version="1.0" encoding="UTF-8"?>
<svg width="48px" height="48px" viewBox="0 0 48 48" version="1.1" xmlns="http://www.w3.org/2000/svg" xmlns:xlink="http://www.w3.org/1999/xlink">
    <title>dribbble-logo</title>
    <g id="Web" stroke="none" stroke-width="1" fill="none" fill-rule="evenodd">
        <g id="01_Homepage" transform="translate(-850.000000, -4859.000000)" fill="#FFFFFF" fill-rule="nonzero">
            <g id="dribbble-logo" transform="translate(850.000000, 4859.000000)">
                <path d="M23.0434373,19.0404092 C20.6397545,14.7889105 18.0705882,11.2037647 17.553023,10.4922353 C13.4203581,12.4642864 10.3252788,16.2689309 9.33286957,20.847468 C9.37411765,20.847468 9.42322251,20.847468 9.47969309,20.847468 C10.8624859,20.847468 16.5920409,20.736491 23.0434373,19.0404092 Z" id="Path"></path>
                <path d="M33.8872634,12.7594066 C31.2444399,10.4426394 27.7845115,9.03529412 24,9.03529412 C22.8362148,9.03529412 21.7038568,9.16935038 20.615202,9.42273146 C21.2250844,10.246711 23.7927775,13.7930639 26.1360614,18.0804092 C31.2007366,16.1653197 33.4693811,13.3309872 33.8872634,12.7594066 Z" id="Path"></path>
                <path d="M28.3398875,22.5823427 C28.4420256,22.8219744 28.5412174,23.0611151 28.6389361,23.2987826 C29.800266,23.1558875 30.9591407,23.100399 32.0600716,23.100399 C35.4733504,23.100399 38.3297801,23.6346598 39.0039898,23.7706803 C38.9465371,20.3171355 37.7140051,17.1444706 35.6879386,14.6337391 C35.1639898,15.3128593 32.6291969,18.3156215 27.3769412,20.4791816 C27.7142916,21.1715601 28.0378926,21.8747417 28.3398875,22.5823427 Z" id="Path"></path>
                <path d="M25.0282558,24.0702199 C25.1932481,24.0171867 25.3602046,23.9685729 25.5271611,23.919468 C25.1696777,23.1175857 24.7846957,22.3147212 24.3800716,21.5236419 C17.7189974,23.5010946 11.2538517,23.6557749 9.39228645,23.6557749 C9.22041944,23.6557749 9.08930946,23.6547928 8.99895652,23.6528286 C8.99601023,23.7765729 8.99257289,23.9003171 8.99257289,24.0230793 C8.99306394,27.829688 10.4215243,31.3072941 12.7702097,33.953555 C13.4041535,32.9061483 17.5279795,26.4925627 25.0282558,24.0702199 Z" id="Path"></path>
                <path d="M24,0 C10.7451253,0 0,10.7456164 0,24 C0,37.2543836 10.7451253,48 24,48 C37.2548747,48 48,37.2543836 48,24 C48,10.7456164 37.2548747,0 24,0 Z M24,41.7410946 C14.2045627,41.7410946 6.23582609,33.7826701 6.23533504,24 C6.23631714,14.2173299 14.2045627,6.25988747 24,6.25890537 C33.7954373,6.25988747 41.7636829,14.2173299 41.7641739,24 C41.7636829,33.7826701 33.7954373,41.7410946 24,41.7410946 Z" id="Shape"></path>
                <path d="M29.6234885,25.8443785 C31.4899642,30.992532 32.2987212,35.2145678 32.4990691,36.368532 C35.7851662,34.1057801 38.126977,30.568757 38.804133,26.4783223 C38.2345166,26.304491 35.7807468,25.6180051 32.6449105,25.6180051 C31.689821,25.6180051 30.6708951,25.6833146 29.6234885,25.8443785 Z" id="Path"></path>
                <path d="M26.606977,26.586844 C18.3858414,29.4476931 15.2745575,35.0505575 14.8463632,35.8917238 C17.3821381,37.8456061 20.5562762,39.0108645 24.000491,39.0108645 C26.0545473,39.0108645 28.0133402,38.5964194 29.7978107,37.8470793 C29.5571969,36.4510281 28.6836215,31.9481125 26.6236726,26.5809514 C26.6177801,26.5829156 26.6123785,26.5848798 26.606977,26.586844 Z" id="Path"></path>
            </g>
        </g>
    </g>
</svg>