<?xml version="1.0" encoding="UTF-8"?>
<svg width="48px" height="47px" viewBox="0 0 48 47" version="1.1" xmlns="http://www.w3.org/2000/svg" xmlns:xlink="http://www.w3.org/1999/xlink">
    <title>github</title>
    <g id="Web" stroke="none" stroke-width="1" fill="none" fill-rule="evenodd">
        <g id="01_Homepage" transform="translate(-1054.000000, -4862.000000)" fill="#FFFFFF" fill-rule="nonzero">
            <g id="github" transform="translate(1054.000000, 4862.000000)">
                <path d="M23.997,-7.49400542e-16 C10.746,-7.49400542e-16 0,10.788 0,24.096 C0,34.74 6.876,43.77 16.416,46.959 C17.616,47.181 18.054,46.437 18.054,45.798 C18.054,45.225 18.033,43.71 18.021,41.7 C11.346,43.155 9.936,38.469 9.936,38.469 C8.847,35.685 7.272,34.944 7.272,34.944 C5.091,33.45 7.434,33.48 7.434,33.48 C9.843,33.651 11.109,35.964 11.109,35.964 C13.251,39.645 16.728,38.583 18.096,37.965 C18.312,36.408 18.933,35.346 19.62,34.743 C14.292,34.134 8.688,32.067 8.688,22.836 C8.688,20.205 9.624,18.054 11.16,16.368 C10.911,15.759 10.089,13.308 11.394,9.993 C11.394,9.993 13.41,9.345 17.994,12.462 C19.908,11.928 21.96,11.661 24.003,11.652 C26.04,11.664 28.095,11.928 30.012,12.465 C34.593,9.348 36.606,9.996 36.606,9.996 C37.914,13.314 37.092,15.762 36.846,16.371 C38.385,18.057 39.312,20.208 39.312,22.839 C39.312,32.094 33.702,34.131 28.356,34.728 C29.217,35.472 29.985,36.942 29.985,39.189 C29.985,42.411 29.955,45.009 29.955,45.798 C29.955,46.443 30.387,47.193 31.605,46.956 C41.13,43.764 48,34.737 48,24.096 C48,10.788 37.254,-7.49400542e-16 23.997,-7.49400542e-16 Z" id="Path"></path>
            </g>
        </g>
    </g>
</svg>