<?xml version="1.0" encoding="UTF-8"?>
<svg width="48px" height="48px" viewBox="0 0 48 48" version="1.1" xmlns="http://www.w3.org/2000/svg" xmlns:xlink="http://www.w3.org/1999/xlink">
    <title>linkedin</title>
    <g id="Web" stroke="none" stroke-width="1" fill="none" fill-rule="evenodd">
        <g id="01_Homepage" transform="translate(-782.000000, -4859.000000)" fill="#FFFFFF" fill-rule="nonzero">
            <g id="linkedin" transform="translate(782.000000, 4859.000000)">
                <path d="M24,0 C10.7471924,0 0,10.7471924 0,24 C0,37.2528076 10.7471924,48 24,48 C37.2528076,48 48,37.2528076 48,24 C48,10.7471924 37.2528076,0 24,0 Z M17.0258789,36.28125 L11.1807862,36.28125 L11.1807862,18.696167 L17.0258789,18.696167 L17.0258789,36.28125 Z M14.1035156,16.2949219 L14.0654297,16.2949219 C12.1040039,16.2949219 10.8354492,14.9447021 10.8354492,13.2572021 C10.8354492,11.5316162 12.1428223,10.21875 14.1423339,10.21875 C16.1418458,10.21875 17.3723145,11.5316162 17.4104004,13.2572021 C17.4104004,14.9447021 16.1418458,16.2949219 14.1035156,16.2949219 Z M38.1020508,36.28125 L32.2576904,36.28125 L32.2576904,26.8736572 C32.2576904,24.5093994 31.411377,22.8969727 29.2965088,22.8969727 C27.6818848,22.8969727 26.7202148,23.9846192 26.2976074,25.0345459 C26.1430664,25.4102783 26.1053467,25.9354248 26.1053467,26.4609375 L26.1053467,36.28125 L20.2606201,36.28125 C20.2606201,36.28125 20.3371582,20.3459473 20.2606201,18.696167 L26.1053467,18.696167 L26.1053467,21.1860352 C26.8820801,19.987793 28.2718506,18.2834473 31.3729248,18.2834473 C35.2185058,18.2834473 38.1020508,20.7967529 38.1020508,26.197998 L38.1020508,36.28125 Z" id="Shape"></path>
            </g>
        </g>
    </g>
</svg>